<?xml version="1.0" encoding="UTF-8" standalone="no"?>
<!-- Created with Inkscape (http://www.inkscape.org/) -->

<svg
   xmlns:dc="http://purl.org/dc/elements/1.1/"
   xmlns:cc="http://creativecommons.org/ns#"
   xmlns:rdf="http://www.w3.org/1999/02/22-rdf-syntax-ns#"
   xmlns:svg="http://www.w3.org/2000/svg"
   xmlns="http://www.w3.org/2000/svg"
   xmlns:sodipodi="http://sodipodi.sourceforge.net/DTD/sodipodi-0.dtd"
   xmlns:inkscape="http://www.inkscape.org/namespaces/inkscape"
   version="1.1"
   id="svg3783"
   width="418.7077"
   height="110.76923"
   viewBox="0 0 418.7077 110.76923"
   sodipodi:docname="logo01-rezisable.svg"
   inkscape:version="0.92.3 (2405546, 2018-03-11)">
  <metadata
     id="metadata3789">
    <rdf:RDF>
      <cc:Work
         rdf:about="">
        <dc:format>image/svg+xml</dc:format>
        <dc:type
           rdf:resource="http://purl.org/dc/dcmitype/StillImage" />
        <dc:title></dc:title>
      </cc:Work>
    </rdf:RDF>
  </metadata>
  <defs
     id="defs3787" />
  <sodipodi:namedview
     pagecolor="#ffffff"
     bordercolor="#666666"
     borderopacity="1"
     objecttolerance="10"
     gridtolerance="10"
     guidetolerance="10"
     inkscape:pageopacity="0"
     inkscape:pageshadow="2"
     inkscape:window-width="1327"
     inkscape:window-height="713"
     id="namedview3785"
     showgrid="false"
     inkscape:zoom="1.3804379"
     inkscape:cx="230.0849"
     inkscape:cy="10.714589"
     inkscape:window-x="39"
     inkscape:window-y="27"
     inkscape:window-maximized="1"
     inkscape:current-layer="svg3783" />
  <path
     style="fill:#2b0000;stroke-width:0.73846155"
     d="m 22.520502,101.42259 c 0,-5.076913 -0.02492,-9.471683 -0.05538,-9.766143 -0.03046,-0.29446 0.301846,-0.65446 0.738462,-0.8 0.540179,-0.18006 0.793846,2.94063 0.793846,9.766143 0,6.19487 -0.282398,10.03077 -0.738462,10.03077 -0.452923,0 -0.738461,-3.56923 -0.738461,-9.23077 z m 19.200001,-0.73846 c 0,-5.577803 0.299346,-9.969223 0.679562,-9.969223 0.373759,0 3.613759,3.69044 7.2,8.20098 l 6.520437,8.200963 0.208801,-8.200963 c 0.301475,-11.84087 1.637353,-10.3982 1.637353,1.768243 0,5.48307 -0.251156,9.96923 -0.558125,9.96923 -0.306968,0 -3.546968,-3.71508 -7.199999,-8.25573 l -6.641875,-8.255703 -0.208801,8.255703 c -0.30058,11.88457 -1.637353,10.48563 -1.637353,-1.7135 z m 34.132408,0.18461 0.206053,-9.784603 4.8,0.004 c 8.595767,0.006 12.026371,2.74355 12.026371,9.596623 0,2.32682 -0.48562,4.53264 -1.257091,5.71005 -1.705092,2.60199 -6.195899,4.25886 -11.544118,4.25886 h -4.43726 z m 10.471725,7.27801 c 3.330129,-1.39142 4.87279,-3.82399 4.87279,-7.68374 0,-2.569423 -0.433743,-3.649303 -2.158582,-5.374133 -1.912187,-1.91219 -2.670816,-2.15858 -6.646154,-2.15858 h -4.487572 v 8.123063 8.12308 h 2.977566 c 1.637656,0 4.086535,-0.46336 5.441952,-1.02969 z m 26.231374,0.34803 c -2.11369,-2.11369 -2.15859,-2.32103 -2.15859,-9.969223 0,-4.29585 0.30206,-7.81065 0.67125,-7.81065 0.36918,0 0.78456,3.51917 0.92308,7.82037 0.23096,7.172253 0.39631,7.937263 1.99517,9.230763 2.33074,1.8856 6.74514,1.83761 9.20853,-0.1001 1.81384,-1.42676 1.93193,-1.9282 2.13036,-9.046143 0.12681,-4.54891 0.50277,-7.46426 0.94854,-7.35551 1.09026,0.26597 1.33217,12.633563 0.29603,15.135013 -1.12959,2.72709 -4.15881,4.25406 -8.43924,4.25406 -2.79158,0 -3.81141,-0.39486 -5.57513,-2.15858 z m 32.54911,-7.81065 c 0,-5.483073 0.25237,-9.969223 0.56082,-9.969223 0.67398,0 1.21076,0.85255 5.34687,8.49231 1.75911,3.249223 3.53742,6.460093 3.9518,7.135273 0.62041,1.01089 1.51764,-0.0971 5.08279,-6.27692 6.5924,-11.427223 6.4731,-11.435713 6.4731,0.46032 0,11.88983 -1.31812,13.9694 -1.6357,2.58061 l -0.21045,-7.546853 -4.28009,7.177613 c -2.35404,3.9477 -4.58548,7.17764 -4.95876,7.17764 -0.37328,0 -2.43494,-3.24 -4.58146,-7.2 l -3.90277,-7.199993 -0.21045,7.569223 c -0.31471,11.31938 -1.6357,9.38115 -1.6357,-2.4 z m 39.45985,9.00316 c -0.20389,-0.53134 -0.27654,-4.93442 -0.16143,-9.784603 l 0.20927,-8.81855 6.09231,-0.21448 c 5.08699,-0.17909 6.09231,-0.0267 6.09231,0.92308 0,0.9161 -1.00636,1.13756 -5.16923,1.13756 h -5.16924 v 4.43076 4.430763 h 4.43077 c 3.44616,0 4.43077,0.24615 4.43077,1.10769 0,0.86154 -0.98461,1.10769 -4.43077,1.10769 h -4.43077 v 2.58462 2.58462 h 5.53847 c 3.19999,0 5.53846,0.31179 5.53846,0.73846 0,1.1735 -12.51755,0.95385 -12.97092,-0.22761 z m 29.95553,-9.00316 c 0,-5.483073 0.25662,-9.969223 0.57026,-9.969223 0.31364,0 3.55364,3.73846 7.2,8.30769 l 6.62974,8.307683 0.20907,-8.336143 c 0.1286,-5.12773 0.48388,-8.16633 0.92308,-7.89489 0.91081,0.56291 0.94561,18.585343 0.037,19.146913 -0.37237,0.23014 -3.61237,-3.21911 -7.2,-7.66498 l -6.52298,-8.083403 -0.2088,8.077783 c -0.30353,11.74233 -1.63736,10.20152 -1.63736,-1.89143 z m 38.4,1.21169 v -8.880603 l -3.13846,-0.22708 c -5.74009,-0.41531 -2.89351,-1.70048 4.2424,-1.91535 5.91219,-0.17803 7.01914,-0.0325 7.01914,0.92307 0,0.82969 -0.78721,1.13444 -2.93041,1.13444 h -2.93041 l -0.20805,8.616653 c -0.14689,6.08332 -0.47944,8.70675 -1.13113,8.92308 -0.70428,0.23377 -0.92308,-1.79861 -0.92308,-8.57421 z m 21.12291,8.14326 c -0.45243,-0.73205 8.04475,-18.831333 8.98856,-19.145943 0.50232,-0.16744 7.18797,13.021543 9.54876,18.837143 0.78849,1.94238 -1.27857,0.81427 -2.36792,-1.29231 -1.12713,-2.17964 -1.24031,-2.21538 -7.01538,-2.21538 -5.77507,0 -5.88825,0.0357 -7.01539,2.21538 -1.21437,2.34834 -1.53053,2.58504 -2.13863,1.60111 z m 11.95577,-10.462633 c -1.25575,-2.84308 -2.50448,-5.16923 -2.77493,-5.16923 -0.48389,0 -2.18664,3.22287 -4.19415,7.938453 l -1.02172,2.4 h 5.137 5.13701 z m 23.0444,1.107683 v -9.969223 h 3.3468 c 8.86108,0 12.78466,5.64025 7.434,10.686563 l -2.51151,2.36866 1.8746,2.39528 c 1.03101,1.31741 2.57658,2.6667 3.43458,2.99842 1.45264,0.56164 1.46715,0.64058 0.21081,1.14717 -1.01282,0.40839 -2.21582,-0.30958 -4.82537,-2.87989 -2.02722,-1.99673 -4.15818,-3.42391 -5.11235,-3.42391 -0.8999,0 -1.63617,-0.3323 -1.63617,-0.73846 0,-0.40615 0.84727,-0.73846 1.88282,-0.73846 2.4087,0 5.9271,-1.81109 6.52,-3.356143 0.73184,-1.90715 0.53319,-4.39706 -0.42744,-5.35769 -0.48738,-0.48739 -2.64738,-0.88615 -4.8,-0.88615 h -3.91385 v 8.861523 c 0,5.41538 -0.28718,8.86154 -0.73846,8.86154 -0.45583,0 -0.73846,-3.81539 -0.73846,-9.96923 z m 31.01539,0 c 0,-6.153833 0.28262,-9.969223 0.73846,-9.969223 0.45584,0 0.73846,3.81539 0.73846,9.969223 0,6.15384 -0.28262,9.96923 -0.73846,9.96923 -0.45584,0 -0.73846,-3.81539 -0.73846,-9.96923 z m 18.21833,9.41538 c -0.43094,-0.72243 8.00262,-18.894153 8.90905,-19.196293 0.55972,-0.18657 9.79569,18.089623 9.79569,19.383763 0,1.18705 -1.61034,0.035 -2.58461,-1.84901 -1.12714,-2.17964 -1.24031,-2.21538 -7.01539,-2.21538 -5.77507,0 -5.88824,0.0357 -7.01538,2.21538 -1.19519,2.31125 -1.53881,2.58451 -2.08936,1.66154 z m 13.27208,-7.75384 c -1.97452,-4.638073 -3.70707,-7.938453 -4.16734,-7.938453 -0.46026,0 -2.19281,3.30038 -4.16733,7.938453 l -1.02172,2.4 h 5.18905 5.18906 z M 33.794852,58.380337 C 31.61807,58.040892 28.122879,53.718798 27.003321,49.982046 L 26.108026,46.99382 24.60572,49.838979 C 18.182182,62.004262 6.5373304,60.629716 1.3590304,47.094966 -0.60886765,41.951383 -0.39790565,26.759308 1.7215424,20.9893 4.9469914,12.208302 9.5427464,6.5899968 14.654708,5.1785158 c 3.600026,-0.994015 6.192925,-0.271861 8.960355,2.495568 4.262573,4.2625742 5.399012,14.3639002 1.615995,14.3639002 -1.464545,0 -1.602864,-0.377681 -1.602864,-4.376617 0,-10.4551562 -8.395835,-12.8424452 -14.4121776,-4.097989 -8.99299005,13.070862 -8.090004,35.644136 1.6268546,40.668919 5.67978,2.937128 10.885738,-2.801091 13.86752,-15.285346 1.589374,-6.654464 1.726765,-6.925804 3.217196,-6.353871 0.768452,0.294882 1.130352,2.391546 1.385986,8.029689 0.35767,7.888584 1.264413,10.805738 4.178494,13.442943 3.443784,3.116582 9.589715,-1.902665 15.805419,-12.907939 3.300346,-5.843459 3.501152,-6.512439 3.522519,-11.735173 0.04082,-9.978262 1.295495,-23.2980282 2.456283,-26.0761842 2.439174,-5.837764 6.318114,-1.951496 6.956412,6.9695542 0.41044,5.736451 -1.308117,14.459995 -4.055006,20.583553 -1.556381,3.469592 -1.757957,4.761111 -1.38308,8.861538 0.960665,10.507829 3.649771,16.198095 7.197165,15.229519 3.521644,-0.961545 8.576932,-6.885432 13.205442,-15.4744 4.407833,-8.179458 5.937985,-8.388315 6.980958,-0.952867 l 0.530555,3.782364 1.261861,-4.43077 c 1.916382,-6.728993 3.449457,-9.230769 5.656549,-9.230769 1.496507,0 2.153088,0.642875 3.296456,3.22764 0.78525,1.775202 1.694304,5.015202 2.020113,7.2 l 0.592379,3.97236 1.36365,-4.957322 c 1.685238,-6.126421 3.629318,-9.442678 5.535548,-9.442678 0.79431,0 1.62842,0.298076 1.85358,0.66239 0.22516,0.364314 1.19654,4.617401 2.15864,9.451303 1.89151,9.503672 4.11679,15.476824 6.04091,16.215178 3.63333,1.394242 10.14156,-5.359486 16.15473,-16.764121 1.90319,-3.609619 4.31899,-7.238349 5.36844,-8.063847 4.80623,-3.780579 12.04737,-0.05139 12.04737,6.204396 0,3.038452 -2.6352,2.51316 -3.70859,-0.73926 -1.16241,-3.52213 -3.8142,-4.784349 -5.96401,-2.838796 -6.67768,6.043217 -6.0107,23.349067 0.8607,22.332098 2.42579,-0.359019 4.33428,-3.414232 5.72934,-9.171853 1.44165,-5.949945 3.04364,-6.809105 4.00707,-2.149026 1.79296,8.672543 3.40706,11.446153 6.66109,11.446153 3.67692,0 10.11463,-7.420191 15.21628,-17.538461 2.7731,-5.499996 4.13264,-5.814391 6.73659,-1.557848 3.87801,6.339195 11.73259,12.046383 20.87436,15.167457 9.09218,3.104143 24.91466,3.182876 32.85624,0.163494 l 1.83243,-0.69669 -2.96697,-2.149257 c -7.59944,-5.505007 -11.18006,-14.821359 -7.49631,-19.504491 2.91364,-3.704098 8.25599,-1.837633 12.5329,4.378641 l 2.39572,3.482053 2.54707,-3.066344 c 2.9386,-3.537687 7.99425,-6.740092 10.6406,-6.740092 7.82293,0 5.376,11.106796 -4.38845,19.919576 l -4.68296,4.226546 4.66614,1.339935 c 3.04488,0.87437 7.23196,1.353571 12.05077,1.379178 8.92213,0.04741 15.59262,-1.765635 22.18451,-6.029786 4.56392,-2.952301 10.72886,-9.242555 12.59472,-12.850718 0.60967,-1.178963 1.68491,-2.077039 2.48679,-2.077039 1.12828,0 1.50561,0.706247 1.87412,3.507693 0.75051,5.70547 0.8078,5.910622 1.2888,4.615384 0.22624,-0.60923 0.81055,-2.65483 1.29845,-4.545778 3.06732,-11.887773 8.65018,-10.294611 10.75409,3.068855 l 0.52317,3.323077 1.40178,-5.093413 c 1.59594,-5.798876 3.77114,-9.306587 5.7712,-9.306587 1.6125,0 2.4608,2.3383 3.7394,10.307494 1.04583,6.518519 3.18289,13.057635 4.88037,14.933329 0.66886,0.739086 1.9061,1.343792 2.74941,1.343792 2.55528,0 10.04006,-8.575198 13.74549,-15.748003 2.52937,-4.896227 3.64737,-6.385367 4.68077,-6.234639 1.17489,0.171363 1.38843,1.044478 1.58589,6.484325 0.37456,10.318279 2.51435,15.498317 6.4021,15.498317 3.71721,0 10.11155,-7.425921 15.76489,-18.308209 1.53866,-2.961822 3.62459,-6.035668 4.63539,-6.830769 1.99286,-1.567579 6.05274,-1.901745 8.32572,-0.685284 3.14467,1.682983 5.02526,8.839647 2.32283,8.839647 -0.848,0 -1.66659,-0.934744 -2.26301,-2.584118 -3.05771,-8.455944 -10.30687,-1.504896 -10.39627,9.968734 -0.0648,8.324066 4.25763,12.44568 8.02687,7.653859 1.42313,-1.809204 1.89938,-3.135743 3.52254,-9.811388 1.23512,-5.0797 3.36935,-3.179143 4.2847,3.815556 0.55846,4.267524 3.3576,7.941972 6.05008,7.941972 2.87467,0 9.55925,-7.387878 13.88828,-15.349487 2.03076,-3.734832 4.11811,-6.7937 4.63855,-6.797482 2.06364,-0.015 1.644,2.442281 -1.35225,7.918439 -4.09906,7.491731 -8.90558,13.701626 -12.16381,15.715319 -4.61935,2.854919 -10.38125,1.623329 -12.32081,-2.633538 -1.06179,-2.330372 -1.46733,-2.276797 -3.0503,0.402968 -1.63966,2.77571 -3.79964,3.951314 -7.03633,3.829634 -3.96696,-0.149134 -6.79623,-3.467251 -7.87934,-9.240732 l -0.52168,-2.780767 -1.15063,1.698593 c -4.76632,7.036218 -8.95098,10.1909 -13.51816,10.1909 -2.9757,0 -3.75907,-0.327877 -5.37678,-2.250404 -2.04783,-2.43371 -4.14539,-8.510313 -4.14539,-12.009146 0,-1.960662 -0.35563,-1.636677 -3.59215,3.272494 -4.33755,6.579239 -7.13935,9.311548 -10.85994,10.590627 -3.90781,1.343441 -6.54316,0.274583 -8.77165,-3.557644 -1.83709,-3.159134 -4.8378,-13.695522 -4.8378,-16.986921 0,-7.39027 -4.10339,4.743908 -5.01891,14.841461 -0.46476,5.12601 -0.68859,5.754377 -2.12249,5.958599 -1.44493,0.205792 -1.64836,-0.194607 -2.06357,-4.061538 -1.1054,-10.294776 -3.16992,-20.905221 -4.06763,-20.905221 -0.76322,0 -3.29305,9.470382 -4.88233,18.276923 -1.01131,5.603889 -1.46948,6.83077 -2.55091,6.83077 -1.48928,0 -1.82645,-1.566714 -2.58944,-12.032094 l -0.47342,-6.493631 -5.74366,5.487462 c -6.23661,5.958425 -11.83347,9.100892 -19.96456,11.209508 -7.14858,1.853822 -19.21328,1.226803 -26.66145,-1.385632 -5.20593,-1.825974 -5.80089,-1.892003 -8.16136,-0.905737 -5.05474,2.112006 -15.43478,3.581537 -22.03873,3.120085 -13.76706,-0.961976 -24.6006,-5.420878 -32.93997,-13.557534 -3.70631,-3.616226 -5.06724,-4.547082 -5.54701,-3.794081 -0.34965,0.548794 -1.87617,3.104609 -3.39225,5.679588 -7.54951,12.822396 -15.87984,16.35262 -21.4267,9.080201 -1.32943,-1.743007 -2.41715,-2.718868 -2.41715,-2.168579 0,0.550289 -0.97819,2.071507 -2.17376,3.380485 -1.81408,1.986163 -2.70763,2.379959 -5.4003,2.379959 -4.24492,0 -7.03303,-2.771826 -8.25769,-8.209457 l -0.87096,-3.867157 -1.6126,2.609244 c -0.88693,1.435084 -3.26228,4.152322 -5.27855,6.038306 -3.20407,2.997031 -4.07239,3.429064 -6.89193,3.429064 -6.13489,0 -8.43983,-4.539104 -11.81208,-23.261539 -0.45747,-2.539826 -3.4556,8.404368 -4.400018,16.061539 -0.81205,6.584043 -1.023002,7.2 -2.465815,7.2 -1.439048,0 -1.621174,-0.520177 -2.071119,-5.915339 -0.529122,-6.344631 -2.448414,-16.639852 -3.440286,-18.453892 -0.473117,-0.865297 -0.793868,-0.622903 -1.465757,1.107692 -0.931968,2.400494 -4.156933,17.075031 -4.544086,20.676923 -0.172645,1.606167 -0.672591,2.277336 -1.818048,2.440666 -1.488414,0.212233 -1.608274,-0.172706 -2.069347,-6.646154 -0.269184,-3.779289 -0.673676,-7.826509 -0.89887,-8.993823 -0.398865,-2.067485 -0.47314,-2.009384 -2.871279,2.246055 -3.041634,5.397299 -7.893542,10.992923 -10.863575,12.528787 -2.952275,1.52668 -6.938317,1.469316 -8.700246,-0.125209 -1.719003,-1.555677 -4.076599,-7.641871 -4.781765,-12.344248 l -0.51755,-3.451275 -3.518118,5.326447 C 43.856402,55.706115 39.078576,59.204277 33.794852,58.380337 Z M 346.47878,19.268754 c -0.46094,-2.348923 0.36364,-3.527165 2.02286,-2.890462 1.75897,0.674982 1.55749,4.921231 -0.23351,4.921231 -0.92835,0 -1.52335,-0.675266 -1.78935,-2.030769 z"
     id="path3793"
     inkscape:connector-curvature="0" />
</svg>
